<svg width="24" height="24" viewBox="0 0 24 24" fill="none" xmlns="http://www.w3.org/2000/svg">
<path d="M12.001 0C8.74203 0 8.33296 0.0142799 7.05305 0.0724793C5.77554 0.131039 4.90351 0.333237 4.14056 0.629994C3.35121 0.936471 2.68173 1.34651 2.01478 2.0137C1.34723 2.68077 0.937191 3.35025 0.629754 4.13924C0.332157 4.90243 0.129719 5.77482 0.0722392 7.05173C0.0149998 8.33176 0 8.74095 0 12C0 15.259 0.0143999 15.6668 0.0724793 16.9467C0.131279 18.2242 0.333477 19.0962 0.629994 19.8592C0.936711 20.6486 1.34675 21.318 2.01394 21.985C2.68077 22.6525 3.35025 23.0635 4.139 23.37C4.90255 23.6668 5.7747 23.869 7.05197 23.9275C8.332 23.9857 8.74071 24 11.9995 24C15.2588 24 15.6666 23.9857 16.9465 23.9275C18.224 23.869 19.097 23.6668 19.8605 23.37C20.6495 23.0635 21.318 22.6525 21.9847 21.985C22.6523 21.318 23.0622 20.6486 23.3698 19.8596C23.6647 19.0962 23.8673 18.224 23.9273 16.9469C23.9848 15.667 23.9998 15.259 23.9998 12C23.9998 8.74095 23.9848 8.332 23.9273 7.05197C23.8673 5.77446 23.6647 4.90255 23.3698 4.1396C23.0622 3.35025 22.6523 2.68077 21.9847 2.0137C21.3173 1.34627 20.6498 0.936231 19.8598 0.630114C19.0948 0.333237 18.2223 0.130919 16.9448 0.0724793C15.6648 0.0142799 15.2572 0 11.9972 0H12.001ZM10.9245 2.1625C11.244 2.16202 11.6005 2.1625 12.001 2.1625C15.205 2.1625 15.5847 2.17402 16.85 2.2315C18.02 2.28502 18.655 2.4805 19.078 2.64477C19.638 2.86221 20.0373 3.12225 20.457 3.54236C20.877 3.96236 21.137 4.36232 21.355 4.92235C21.5193 5.34475 21.715 5.97978 21.7683 7.14977C21.8257 8.4148 21.8382 8.79471 21.8382 11.9972C21.8382 15.1998 21.8257 15.5798 21.7683 16.8447C21.7147 18.0147 21.5193 18.6497 21.355 19.0722C21.1376 19.6323 20.877 20.031 20.457 20.4508C20.037 20.8708 19.6383 21.1307 19.078 21.3483C18.6555 21.5133 18.02 21.7083 16.85 21.7618C15.585 21.8193 15.205 21.8317 12.001 21.8317C8.79675 21.8317 8.41696 21.8193 7.15205 21.7618C5.98206 21.7078 5.34703 21.5123 4.92367 21.348C4.36376 21.1305 3.96368 20.8706 3.54368 20.4506C3.12369 20.0306 2.86377 19.6316 2.64573 19.0713C2.48146 18.6488 2.28574 18.0137 2.23246 16.8438C2.17498 15.5787 2.16346 15.1988 2.16346 11.9942C2.16346 8.78979 2.17498 8.4118 2.23246 7.14677C2.28598 5.97678 2.48146 5.34175 2.64573 4.91875C2.86329 4.35872 3.12369 3.95876 3.5438 3.53876C3.9638 3.11877 4.36376 2.85873 4.92379 2.64081C5.34679 2.47582 5.98206 2.28082 7.15205 2.22706C8.25904 2.17702 8.68803 2.16202 10.9245 2.1595V2.1625ZM18.4065 4.15496C17.6115 4.15496 16.9665 4.79935 16.9665 5.59446C16.9665 6.38946 17.6115 7.03445 18.4065 7.03445C19.2015 7.03445 19.8465 6.38946 19.8465 5.59446C19.8465 4.79947 19.2015 4.15448 18.4065 4.15448V4.15496ZM12.001 5.83746C8.59779 5.83746 5.83854 8.59671 5.83854 12C5.83854 15.4033 8.59779 18.1612 12.001 18.1612C15.4042 18.1612 18.1625 15.4033 18.1625 12C18.1625 8.59683 15.404 5.83746 12.0007 5.83746H12.001ZM12.001 7.99996C14.21 7.99996 16.001 9.7907 16.001 12C16.001 14.2091 14.21 16 12.001 16C9.79178 16 8.00104 14.2091 8.00104 12C8.00104 9.7907 9.79178 7.99996 12.001 7.99996Z" fill="white"/>
</svg>
